<?xml version="1.0" standalone="no"?><svg xmlns="http://www.w3.org/2000/svg" viewBox="0 0 1440 320"><path fill="rgb(232, 60, 0)" fill-opacity="1" d="M0,320L11.4,293.3C22.9,267,46,213,69,202.7C91.4,192,114,224,137,208C160,192,183,128,206,133.3C228.6,139,251,213,274,213.3C297.1,213,320,139,343,106.7C365.7,75,389,85,411,106.7C434.3,128,457,160,480,192C502.9,224,526,256,549,266.7C571.4,277,594,267,617,224C640,181,663,107,686,90.7C708.6,75,731,117,754,128C777.1,139,800,117,823,106.7C845.7,96,869,96,891,117.3C914.3,139,937,181,960,186.7C982.9,192,1006,160,1029,138.7C1051.4,117,1074,107,1097,128C1120,149,1143,203,1166,224C1188.6,245,1211,235,1234,213.3C1257.1,192,1280,160,1303,144C1325.7,128,1349,128,1371,149.3C1394.3,171,1417,213,1429,234.7L1440,256L1440,0L1428.6,0C1417.1,0,1394,0,1371,0C1348.6,0,1326,0,1303,0C1280,0,1257,0,1234,0C1211.4,0,1189,0,1166,0C1142.9,0,1120,0,1097,0C1074.3,0,1051,0,1029,0C1005.7,0,983,0,960,0C937.1,0,914,0,891,0C868.6,0,846,0,823,0C800,0,777,0,754,0C731.4,0,709,0,686,0C662.9,0,640,0,617,0C594.3,0,571,0,549,0C525.7,0,503,0,480,0C457.1,0,434,0,411,0C388.6,0,366,0,343,0C320,0,297,0,274,0C251.4,0,229,0,206,0C182.9,0,160,0,137,0C114.3,0,91,0,69,0C45.7,0,23,0,11,0L0,0Z"></path></svg>